<svg xmlns="http://www.w3.org/2000/svg" version="1.1" xmlns:xlink="http://www.w3.org/1999/xlink" xmlns:svgjs="http://svgjs.dev/svgjs" width="1500" height="1500" viewBox="0 0 1500 1500"><rect width="1500" height="1500" fill="#b79891"></rect><g transform="matrix(0.6666666666666666,0,0,0.6666666666666666,249.78425655976667,249.78425655976673)"><svg viewBox="0 0 343 343" data-background-color="#b79891" preserveAspectRatio="xMidYMid meet" height="1500" width="1500" xmlns="http://www.w3.org/2000/svg" xmlns:xlink="http://www.w3.org/1999/xlink"><g id="tight-bounds" transform="matrix(1,0,0,1,0.0740000000000407,0.07400000000001228)"><svg viewBox="0 0 342.85155851775386 342.85155851775386" height="342.85155851775386" width="342.85155851775386"><g><svg></svg></g><g><svg viewBox="0 0 342.85155851775386 342.85155851775386" height="342.85155851775386" width="342.85155851775386"><g><path d="M0 171.426c0-94.676 76.75-171.426 171.426-171.426 94.676 0 171.426 76.75 171.426 171.426 0 94.676-76.75 171.426-171.426 171.426-94.676 0-171.426-76.75-171.426-171.426zM171.426 334.165c89.878 0 162.739-72.861 162.739-162.739 0-89.878-72.861-162.739-162.739-162.739-89.878 0-162.739 72.861-162.739 162.739 0 89.878 72.861 162.739 162.739 162.739z" data-fill-palette-color="tertiary" fill="#b79891" stroke="transparent"></path><ellipse rx="164.56874808852186" ry="164.56874808852186" cx="171.42577925887693" cy="171.42577925887693" fill="#b79891" stroke="transparent" stroke-width="0" fill-opacity="1" data-fill-palette-color="tertiary"></ellipse></g><g transform="matrix(1,0,0,1,64.84655864529837,92.91664478329804)"><svg viewBox="0 0 213.1584412271571 157.01826895115778" height="157.01826895115778" width="213.1584412271571"><g><svg viewBox="0 0 213.1584412271571 157.01826895115778" height="157.01826895115778" width="213.1584412271571"><g><svg viewBox="0 0 213.1584412271571 157.01826895115778" height="157.01826895115778" width="213.1584412271571"><g id="textblocktransform"><svg viewBox="0 0 213.1584412271571 157.01826895115778" height="157.01826895115778" width="213.1584412271571" id="textblock"><g><svg viewBox="0 0 213.1584412271571 96.32724910200773" height="96.32724910200773" width="213.1584412271571"><g transform="matrix(1,0,0,1,0,0)"><svg width="213.1584412271571" viewBox="1.05 -35 77.45 35" height="96.32724910200773" data-palette-color="#ffffff"><path d="M35.7-18.1L35.7-18.1Q35.7-7.8 29.9-3.75L29.9-3.75Q24.55 0 15.2 0L15.2 0 1.05 0 1.05-0.95 4.35-0.95 4.35-34.05 1.05-34.05 1.05-35 16.5-35Q26.1-35 30.9-31.08 35.7-27.15 35.7-18.1ZM14.1-34.05L14.1-0.95 16-0.95Q21.05-0.95 23.23-4.53 25.4-8.1 25.4-16.5L25.4-16.5 25.4-19.4Q25.4-30.65 21.1-32.95L21.1-32.95Q19.05-34.05 15.3-34.05L15.3-34.05 14.1-34.05ZM59.15-9.25L65.15-35 78.5-35 78.5-34.05 75.75-34.05 75.75-0.95 78.5-0.95 78.5 0 63.25 0 63.25-0.95 66-0.95 66-32.2 65.8-32.2 58.3 0 52.05 0 43.25-32.35 43.05-32.35 43.05-0.95 45.8-0.95 45.8 0 39 0 39-0.95 41.75-0.95 41.75-34.05 39-34.05 39-35 52.5-35 59.15-9.25Z" opacity="1" transform="matrix(1,0,0,1,0,0)" fill="#ffffff" class="wordmark-text-0" data-fill-palette-color="quaternary" id="text-0"></path></svg></g></svg></g><g transform="matrix(1,0,0,1,0,119.0678007610133)"><svg viewBox="0 0 213.1584412271571 37.950468190144484" height="37.950468190144484" width="213.1584412271571"><g transform="matrix(1,0,0,1,0,0)"><svg width="213.1584412271571" viewBox="2 -36.75 268.18 47.75000000000001" height="37.950468190144484" data-palette-color="#ffffff"><path d="M9.45 11L4.95 11 4.95-19.35Q4.95-21.05 4.13-21.78 3.3-22.5 2-22.5L2-22.5 2.95-26Q7.55-26 8.7-22.35L8.7-22.35Q9.2-23.1 10.33-24.1 11.45-25.1 13.13-25.85 14.8-26.6 16.95-26.6L16.95-26.6Q19.95-26.6 22.58-25.03 25.2-23.45 26.8-20.48 28.4-17.5 28.4-13.25L28.4-13.25Q28.4-9.1 26.8-5.98 25.2-2.85 22.63-1.13 20.05 0.6 17.05 0.6L17.05 0.6Q14.75 0.6 12.75-0.33 10.75-1.25 9.45-2.45L9.45-2.45 9.45 11ZM16.15-3.4L16.15-3.4Q19.55-3.4 21.68-6.08 23.8-8.75 23.8-13.1L23.8-13.1Q23.8-16.1 22.73-18.25 21.65-20.4 19.88-21.55 18.1-22.7 15.95-22.7L15.95-22.7Q13.8-22.7 12.08-21.63 10.35-20.55 9.45-19.3L9.45-19.3 9.45-6.5Q10.75-5.15 12.45-4.28 14.15-3.4 16.15-3.4ZM39.15 0L34.65 0 34.65-26 39.15-26 39.15 0ZM36.9-30.45L36.9-30.45Q35.6-30.45 34.67-31.4 33.75-32.35 33.75-33.6L33.75-33.6Q33.75-35.05 34.6-35.9 35.45-36.75 36.9-36.75L36.9-36.75Q38.2-36.75 39.12-35.83 40.05-34.9 40.05-33.6L40.05-33.6Q40.05-32.2 39.2-31.33 38.35-30.45 36.9-30.45ZM57.65 0.6L57.65 0.6Q53.95 0.6 51.17-1.13 48.4-2.85 46.9-5.93 45.4-9 45.4-13L45.4-13Q45.4-16.75 46.92-19.85 48.45-22.95 51.3-24.78 54.15-26.6 58-26.6L58-26.6Q60.2-26.6 61.87-26.2 63.55-25.8 65.09-25.05L65.09-25.05 63.75-21.25Q62.35-21.95 61.07-22.28 59.8-22.6 58.25-22.6L58.25-22.6Q54.75-22.6 52.37-20.08 50-17.55 50-13.1L50-13.1Q50-10.4 51-8.2 52-6 53.77-4.7 55.55-3.4 57.95-3.4L57.95-3.4Q59.84-3.4 61.2-3.83 62.55-4.25 64.09-5.05L64.09-5.05 65.5-1.25Q63.95-0.4 62.02 0.1 60.09 0.6 57.65 0.6ZM79.84 0.6L79.84 0.6Q76.09 0.6 73.92-1.88 71.74-4.35 71.74-8.95L71.74-8.95 71.74-21.15 67.24-21.15 67.24-25.05 71.84-25.05 72.79-33.25 76.24-33.25 76.24-25.05 83.44-25.05 83.44-21.15 76.24-21.15 76.24-8.6Q76.24-5.7 77.47-4.55 78.69-3.4 80.39-3.4L80.39-3.4Q81.64-3.4 82.77-3.8 83.89-4.2 84.84-4.75L84.84-4.75 86.09-1.15Q85.09-0.55 83.39 0.03 81.69 0.6 79.84 0.6ZM98.84 0.6L98.84 0.6Q96.59 0.6 94.59-0.35 92.59-1.3 91.34-3.43 90.09-5.55 90.09-9.1L90.09-9.1 90.09-26 94.59-26 94.59-9.7Q94.59-6.65 95.89-5.03 97.19-3.4 99.69-3.4L99.69-3.4Q101.74-3.4 103.67-4.23 105.59-5.05 107.09-6.45L107.09-6.45 107.09-26 111.59-26 111.59-6.75Q111.59-4.6 112.52-3.93 113.44-3.25 114.54-3.25L114.54-3.25 113.59 0.25Q108.94 0.25 107.84-3.45L107.84-3.45Q106.09-1.65 103.79-0.53 101.49 0.6 98.84 0.6ZM125.04 0L120.54 0 120.54-26 124.89-26 124.89-20.35Q125.54-22 126.64-23.43 127.74-24.85 129.39-25.73 131.04-26.6 133.24-26.6L133.24-26.6Q133.99-26.6 134.74-26.53 135.49-26.45 135.99-26.3L135.99-26.3 134.64-21.65Q133.69-22.05 132.39-22.05L132.39-22.05Q130.54-22.05 128.86-21 127.19-19.95 126.11-17.75 125.04-15.55 125.04-12.15L125.04-12.15 125.04 0ZM149.39 0.6L149.39 0.6Q143.79 0.6 140.51-2.98 137.24-6.55 137.24-13L137.24-13Q137.24-16.9 138.71-19.98 140.19-23.05 142.84-24.83 145.49-26.6 148.99-26.6L148.99-26.6Q152.74-26.6 155.21-24.98 157.69-23.35 158.94-20.6 160.19-17.85 160.19-14.55L160.19-14.55Q160.19-12.8 160.04-11.15L160.04-11.15 141.84-11.15Q142.29-7.5 144.39-5.45 146.49-3.4 149.94-3.4L149.94-3.4Q152.19-3.4 153.99-3.88 155.79-4.35 157.44-5.1L157.44-5.1 158.49-1.25Q156.69-0.45 154.44 0.08 152.19 0.6 149.39 0.6ZM141.79-14.8L141.79-14.8 156.04-14.8Q156.04-18.6 154.14-20.65 152.24-22.7 148.89-22.7L148.89-22.7Q145.99-22.7 144.09-20.68 142.19-18.65 141.79-14.8ZM173.18 0.6L173.18 0.6Q170.23 0.6 167.86-0.15 165.48-0.9 163.93-2.1L163.93-2.1 165.83-5.85Q167.13-4.75 169.11-4.03 171.08-3.3 173.33-3.3L173.33-3.3Q176.13-3.3 177.56-4.23 178.98-5.15 178.98-6.6L178.98-6.6Q178.98-7.65 178.46-8.45 177.93-9.25 176.53-10.03 175.13-10.8 172.48-11.7L172.48-11.7Q168.83-12.95 167.01-14.68 165.18-16.4 165.18-19.45L165.18-19.45Q165.18-22.45 167.81-24.53 170.43-26.6 175.08-26.6L175.08-26.6Q177.58-26.6 179.53-26.08 181.48-25.55 183.03-24.75L183.03-24.75 181.78-21.05Q180.43-21.85 178.71-22.35 176.98-22.85 174.88-22.85L174.88-22.85Q172.28-22.85 170.93-21.8 169.58-20.75 169.58-19.5L169.58-19.5Q169.58-18.3 170.63-17.45 171.68-16.6 174.73-15.6L174.73-15.6Q179.68-13.95 181.63-11.95 183.58-9.95 183.58-6.95L183.58-6.95Q183.58-3.45 180.76-1.43 177.93 0.6 173.18 0.6ZM211.28 11L206.78 11 206.78-2.65Q205.73-1.55 203.86-0.48 201.98 0.6 199.48 0.6L199.48 0.6Q196.48 0.6 193.81-0.95 191.13-2.5 189.48-5.53 187.83-8.55 187.83-12.9L187.83-12.9Q187.83-17 189.48-20.08 191.13-23.15 193.88-24.88 196.63-26.6 199.93-26.6L199.93-26.6Q202.18-26.6 204.01-25.83 205.83-25.05 207.18-23.9L207.18-23.9 207.18-26 211.28-26 211.28 11ZM200.48-3.4L200.48-3.4Q202.48-3.4 204.13-4.35 205.78-5.3 206.78-6.55L206.78-6.55 206.78-20.6Q205.43-21.55 203.81-22.13 202.18-22.7 200.38-22.7L200.38-22.7Q198.23-22.7 196.43-21.55 194.63-20.4 193.53-18.25 192.43-16.1 192.43-13.05L192.43-13.05Q192.43-10.05 193.56-7.88 194.68-5.7 196.53-4.55 198.38-3.4 200.48-3.4ZM227.78 0.6L227.78 0.6Q225.53 0.6 223.53-0.35 221.53-1.3 220.28-3.43 219.03-5.55 219.03-9.1L219.03-9.1 219.03-26 223.53-26 223.53-9.7Q223.53-6.65 224.83-5.03 226.13-3.4 228.63-3.4L228.63-3.4Q230.68-3.4 232.6-4.23 234.53-5.05 236.03-6.45L236.03-6.45 236.03-26 240.53-26 240.53-6.75Q240.53-4.6 241.45-3.93 242.38-3.25 243.48-3.25L243.48-3.25 242.53 0.25Q237.88 0.25 236.78-3.45L236.78-3.45Q235.03-1.65 232.73-0.53 230.43 0.6 227.78 0.6ZM259.38 0.6L259.38 0.6Q253.78 0.6 250.5-2.98 247.23-6.55 247.23-13L247.23-13Q247.23-16.9 248.7-19.98 250.18-23.05 252.83-24.83 255.48-26.6 258.98-26.6L258.98-26.6Q262.73-26.6 265.2-24.98 267.68-23.35 268.93-20.6 270.18-17.85 270.18-14.55L270.18-14.55Q270.18-12.8 270.03-11.15L270.03-11.15 251.83-11.15Q252.28-7.5 254.38-5.45 256.48-3.4 259.93-3.4L259.93-3.4Q262.18-3.4 263.98-3.88 265.78-4.35 267.43-5.1L267.43-5.1 268.48-1.25Q266.68-0.45 264.43 0.08 262.18 0.6 259.38 0.6ZM251.78-14.8L251.78-14.8 266.03-14.8Q266.03-18.6 264.13-20.65 262.23-22.7 258.88-22.7L258.88-22.7Q255.98-22.7 254.08-20.68 252.18-18.65 251.78-14.8Z" opacity="1" transform="matrix(1,0,0,1,0,0)" fill="#ffffff" class="slogan-text-1" data-fill-palette-color="quaternary" id="text-1"></path></svg></g></svg></g></svg></g></svg></g><g></g></svg></g></svg></g></svg></g><defs></defs></svg><rect width="342.85155851775386" height="342.85155851775386" fill="none" stroke="none" visibility="hidden"></rect></g></svg></g></svg>